<?xml version="1.0" encoding="UTF-8" standalone="no"?>
<!-- Created with Inkscape (http://www.inkscape.org/) -->

<svg
   width="100mm"
   height="100mm"
   viewBox="0 0 100 100"
   version="1.1"
   id="svg5"
   xml:space="preserve"
   inkscape:version="1.2.2 (732a01da63, 2022-12-09)"
   sodipodi:docname="dealer_R.svg"
   inkscape:export-filename="res\images\dealer_R.png"
   inkscape:export-xdpi="25.4"
   inkscape:export-ydpi="25.4"
   xmlns:inkscape="http://www.inkscape.org/namespaces/inkscape"
   xmlns:sodipodi="http://sodipodi.sourceforge.net/DTD/sodipodi-0.dtd"
   xmlns:xlink="http://www.w3.org/1999/xlink"
   xmlns="http://www.w3.org/2000/svg"
   xmlns:svg="http://www.w3.org/2000/svg"><sodipodi:namedview
     id="namedview7"
     pagecolor="#ffffff"
     bordercolor="#000000"
     borderopacity="0.25"
     inkscape:showpageshadow="2"
     inkscape:pageopacity="0.0"
     inkscape:pagecheckerboard="0"
     inkscape:deskcolor="#d1d1d1"
     inkscape:document-units="mm"
     showgrid="false"
     inkscape:zoom="1.0129245"
     inkscape:cx="178.19689"
     inkscape:cy="179.18413"
     inkscape:window-width="1920"
     inkscape:window-height="991"
     inkscape:window-x="-9"
     inkscape:window-y="-9"
     inkscape:window-maximized="1"
     inkscape:current-layer="layer1" /><defs
     id="defs2"><linearGradient
       inkscape:collect="always"
       id="linearGradient1232"><stop
         style="stop-color:#f9f9f9;stop-opacity:0.11320755;"
         offset="0"
         id="stop1228" /><stop
         style="stop-color:#f9f9f9;stop-opacity:1;"
         offset="1"
         id="stop1230" /></linearGradient><linearGradient
       inkscape:collect="always"
       xlink:href="#linearGradient1232"
       id="linearGradient1234"
       x1="63.167912"
       y1="33.246269"
       x2="-43.589554"
       y2="122.45709"
       gradientUnits="userSpaceOnUse" /></defs><g
     inkscape:label="Layer 1"
     inkscape:groupmode="layer"
     id="layer1"><rect
       style="fill:#333333;stroke-width:0.264583"
       id="rect280"
       width="100.29291"
       height="100.1082"
       x="-0.092350744"
       y="-0.092350744"
       ry="12.929105" /><path
       id="path1223"
       style="fill:url(#linearGradient1234);stroke-width:0.264583;fill-opacity:1"
       d="M 12.836943 -0.092500814 C 5.6742256 -0.092500814 -0.092500814 5.6742256 -0.092500814 12.836943 L -0.092500814 87.086674 C -0.092500814 94.249391 5.6742256 100.0156 12.836943 100.0156 L 87.271676 100.0156 C 94.434393 100.0156 100.2006 94.249391 100.2006 87.086674 L 100.2006 42.227397 A 101.12407 71.756531 0 0 0 33.715255 -0.092500814 L 12.836943 -0.092500814 z " /><path
       style="fill:none;fill-opacity:0.73;stroke:#000000;stroke-width:3.765;stroke-dasharray:none;stroke-opacity:1"
       d="m 7.9942818,25.447836 c -1.9993029,4.335119 3.4610642,9.040573 3.8298132,13.800246 0.09178,1.184713 -0.490459,2.35508 -0.412826,3.540804 0.192277,2.936725 1.456621,5.703038 2.157181,8.561454 0.638989,2.607195 1.134998,5.251005 1.866261,7.833837 0.760493,2.686067 1.823452,5.279045 2.618071,7.955214 0.923746,3.111051 1.029468,6.515607 2.496588,9.410344 0.803069,1.584514 1.691748,3.500896 3.346219,4.147681 1.750551,0.684346 3.707653,-1.007657 5.578198,-0.823745 0.98226,0.09658 1.804653,0.920966 2.788886,0.994772 2.562818,0.192183 5.05931,-2.040803 7.567002,-1.478259 1.850634,0.415148 2.920974,2.458462 4.583213,3.371786 2.348593,1.290442 4.816679,2.787635 7.493582,2.911429 5.114797,0.236535 10.338578,-1.653334 14.770404,-4.217708 1.38552,-0.8017 1.876466,-3.02368 3.444359,-3.346324 0.754397,-0.155242 1.402183,0.971302 2.158348,0.82491 1.190624,-0.230504 1.778485,-1.649202 2.668146,-2.473351 3.386676,-3.137292 8.097053,-5.280101 10.163213,-9.408437 0.836689,-1.671766 -0.468728,-4.032368 0.582903,-5.577984 0.984472,-1.446911 3.478768,-1.130379 4.656844,-2.424547 1.098476,-1.206726 1.581252,-2.924391 1.843872,-4.534939 0.516238,-3.16589 -0.07884,-6.439801 -0.604863,-9.604079 C 91.338203,43.398072 91.391038,41.623743 90.37774,40.47255 86.757116,36.359214 79.486503,37.574224 75.196629,34.164613 73.055758,32.463038 72.15571,29.60766 70.419894,27.494457 c -2.196245,-2.673734 -4.508158,-5.281022 -7.104841,-7.56785 -1.468381,-1.293164 -2.899281,-2.81826 -4.752968,-3.444571 -1.88463,-0.636764 -3.985798,0.04263 -5.966092,-0.146414 -2.586493,-0.246911 -5.099856,-1.055866 -7.687847,-1.286541 -1.360924,-0.121303 -2.739836,0.09376 -4.098664,-0.04912 -1.188864,-0.12501 -2.340147,-0.491243 -3.516505,-0.703853 -1.498805,-0.270887 -3.015965,-1.019972 -4.510855,-0.728255 -1.559448,0.304313 -2.787958,1.541185 -4.074793,2.473141 -1.862064,1.348551 -3.216472,3.393043 -5.239215,4.485921 -1.962745,1.060461 -4.266253,1.312138 -6.427192,1.866473 -1.580641,0.405475 -3.23293,0.541126 -4.777902,1.06639 -1.486121,0.505252 -3.6113718,0.562682 -4.2687382,1.98806 z"
       id="path348"
       sodipodi:nodetypes="sssssssssssssssssssssssssssssssssssss" /></g></svg>
