<?xml version="1.0" encoding="UTF-8" standalone="no"?>
<!-- Created with Inkscape (http://www.inkscape.org/) -->

<svg
   width="100mm"
   height="100mm"
   viewBox="0 0 100 100"
   version="1.1"
   id="svg5"
   xml:space="preserve"
   inkscape:version="1.2.2 (732a01da63, 2022-12-09)"
   sodipodi:docname="dealer_P.svg"
   inkscape:export-filename="res\images\dealer_P.png"
   inkscape:export-xdpi="25.4"
   inkscape:export-ydpi="25.4"
   xmlns:inkscape="http://www.inkscape.org/namespaces/inkscape"
   xmlns:sodipodi="http://sodipodi.sourceforge.net/DTD/sodipodi-0.dtd"
   xmlns:xlink="http://www.w3.org/1999/xlink"
   xmlns="http://www.w3.org/2000/svg"
   xmlns:svg="http://www.w3.org/2000/svg"><sodipodi:namedview
     id="namedview7"
     pagecolor="#ffffff"
     bordercolor="#000000"
     borderopacity="0.25"
     inkscape:showpageshadow="2"
     inkscape:pageopacity="0.0"
     inkscape:pagecheckerboard="0"
     inkscape:deskcolor="#d1d1d1"
     inkscape:document-units="mm"
     showgrid="false"
     inkscape:zoom="0.71624579"
     inkscape:cx="358.11729"
     inkscape:cy="446.07592"
     inkscape:window-width="1920"
     inkscape:window-height="991"
     inkscape:window-x="-9"
     inkscape:window-y="-9"
     inkscape:window-maximized="1"
     inkscape:current-layer="layer1" /><defs
     id="defs2"><linearGradient
       inkscape:collect="always"
       id="linearGradient1232"><stop
         style="stop-color:#f9f9f9;stop-opacity:0.11320755;"
         offset="0"
         id="stop1228" /><stop
         style="stop-color:#f9f9f9;stop-opacity:1;"
         offset="1"
         id="stop1230" /></linearGradient><linearGradient
       inkscape:collect="always"
       xlink:href="#linearGradient1232"
       id="linearGradient1234"
       x1="63.167912"
       y1="33.246269"
       x2="-43.589554"
       y2="122.45709"
       gradientUnits="userSpaceOnUse" /></defs><g
     inkscape:label="Layer 1"
     inkscape:groupmode="layer"
     id="layer1"><rect
       style="fill:#333333;stroke-width:0.264583"
       id="rect280"
       width="100.29291"
       height="100.1082"
       x="-0.092350744"
       y="-0.092350744"
       ry="12.929105" /><path
       id="path1223"
       style="fill:url(#linearGradient1234);stroke-width:0.264583;fill-opacity:1"
       d="M 12.836943 -0.092500814 C 5.6742256 -0.092500814 -0.092500814 5.6742256 -0.092500814 12.836943 L -0.092500814 87.086674 C -0.092500814 94.249391 5.6742256 100.0156 12.836943 100.0156 L 87.271676 100.0156 C 94.434393 100.0156 100.2006 94.249391 100.2006 87.086674 L 100.2006 42.227397 A 101.12407 71.756531 0 0 0 33.715255 -0.092500814 L 12.836943 -0.092500814 z " /><path
       style="fill:#000000;stroke-width:0.330255"
       d="M 24.049577,86.18833 23.084213,85.222966 V 50.000002 14.777043 l 0.965364,-0.965364 0.965364,-0.96536 h 18.046017 c 11.904845,0 18.265225,0.117319 18.690177,0.344748 0.354291,0.18961 3.911272,4.07328 7.904401,8.630374 l 7.260251,8.285611 v 27.557957 27.557956 l -0.965364,0.965364 -0.965364,0.965352 H 49.999995 25.014941 Z M 73.943492,58.256373 V 32.001108 h -6.704187 c -4.77402,0 -6.81826,-0.114086 -7.10048,-0.396306 -0.285552,-0.285565 -0.396306,-2.546631 -0.396306,-8.09124 V 15.81861 H 42.899515 26.056508 V 50.165128 84.51165 h 23.943487 23.943497 z"
       id="path1329" /></g></svg>
