<?xml version="1.0" encoding="UTF-8" standalone="no"?>
<!-- Created with Inkscape (http://www.inkscape.org/) -->

<svg
   width="100mm"
   height="100mm"
   viewBox="0 0 100 100"
   version="1.1"
   id="svg5"
   xml:space="preserve"
   inkscape:version="1.2.2 (732a01da63, 2022-12-09)"
   sodipodi:docname="dealer_S.svg"
   inkscape:export-filename="res\images\dealer_S.png"
   inkscape:export-xdpi="25.4"
   inkscape:export-ydpi="25.4"
   xmlns:inkscape="http://www.inkscape.org/namespaces/inkscape"
   xmlns:sodipodi="http://sodipodi.sourceforge.net/DTD/sodipodi-0.dtd"
   xmlns:xlink="http://www.w3.org/1999/xlink"
   xmlns="http://www.w3.org/2000/svg"
   xmlns:svg="http://www.w3.org/2000/svg"><sodipodi:namedview
     id="namedview7"
     pagecolor="#ffffff"
     bordercolor="#000000"
     borderopacity="0.25"
     inkscape:showpageshadow="2"
     inkscape:pageopacity="0.0"
     inkscape:pagecheckerboard="0"
     inkscape:deskcolor="#d1d1d1"
     inkscape:document-units="mm"
     showgrid="false"
     inkscape:zoom="1.4324916"
     inkscape:cx="-30.36667"
     inkscape:cy="232.81114"
     inkscape:window-width="1920"
     inkscape:window-height="991"
     inkscape:window-x="-9"
     inkscape:window-y="-9"
     inkscape:window-maximized="1"
     inkscape:current-layer="layer1" /><defs
     id="defs2"><linearGradient
       inkscape:collect="always"
       id="linearGradient1232"><stop
         style="stop-color:#f9f9f9;stop-opacity:0.11320755;"
         offset="0"
         id="stop1228" /><stop
         style="stop-color:#f9f9f9;stop-opacity:1;"
         offset="1"
         id="stop1230" /></linearGradient><linearGradient
       inkscape:collect="always"
       xlink:href="#linearGradient1232"
       id="linearGradient1234"
       x1="63.167912"
       y1="33.246269"
       x2="-43.589554"
       y2="122.45709"
       gradientUnits="userSpaceOnUse" /></defs><g
     inkscape:label="Layer 1"
     inkscape:groupmode="layer"
     id="layer1"><rect
       style="fill:#333333;stroke-width:0.264583"
       id="rect280"
       width="100.29291"
       height="100.1082"
       x="-0.092350744"
       y="-0.092350744"
       ry="12.929105" /><path
       id="path1223"
       style="fill:url(#linearGradient1234);stroke-width:0.264583;fill-opacity:1"
       d="M 12.836943 -0.092500814 C 5.6742256 -0.092500814 -0.092500814 5.6742256 -0.092500814 12.836943 L -0.092500814 87.086674 C -0.092500814 94.249391 5.6742256 100.0156 12.836943 100.0156 L 87.271676 100.0156 C 94.434393 100.0156 100.2006 94.249391 100.2006 87.086674 L 100.2006 42.227397 A 101.12407 71.756531 0 0 0 33.715255 -0.092500814 L 12.836943 -0.092500814 z " /><path
       style="fill:#000000;stroke-width:0.131628"
       d="m 79.512828,87.074538 c -0.492098,2.218172 -1.483701,4.025901 -3.068626,5.594203 -1.692161,1.674415 -3.153511,2.412381 -5.47349,2.764053 -3.244252,0.491774 -6.917261,-1.076694 -9.228276,-3.940697 -0.876723,-1.08652 -1.508861,-2.267729 -2.047117,-3.825232 l -0.432142,-1.250471 -0.08524,-5.989079 C 59.082653,73.732225 58.97188,72.612657 58.116495,69.699609 57.539146,67.733454 57.004672,66.890783 53.399444,62.262614 50.438867,58.462012 50.049258,57.926572 48.227438,55.154695 45.729159,51.353578 43.723231,47.89797 42.076571,44.558618 37.240439,34.75119 33.265537,23.249215 30.886355,12.178066 30.033676,8.2102635 29.587528,4.4778215 29.965926,4.4778215 c 0.801935,0 18.300067,34.0980935 23.13509,45.0826725 1.318964,2.996517 2.909229,6.941502 4.37751,10.859326 2.243875,5.987338 3.590821,8.34622 5.686651,9.958923 0.974449,0.749826 2.178476,1.22758 4.250633,1.686623 4.13081,0.915095 5.388447,1.329334 6.904365,2.27417 2.384231,1.486027 4.209904,4.015874 5.01353,6.947294 0.384925,1.4041 0.478783,4.436925 0.179123,5.787708 z M 77.367297,82.45909 C 76.1649,76.63324 70.576656,73.375047 65.799254,75.714426 c -1.132298,0.554459 -2.702886,2.082071 -3.356821,3.264973 -1.512429,2.735855 -1.577282,6.408057 -0.164075,9.290354 1.518624,3.097306 4.402264,5.057132 7.440943,5.057132 5.172431,0 8.820952,-5.184544 7.647996,-10.867795 z M 51.877226,49.991212 c -0.648721,-0.876786 -1.994266,-1.157932 -2.833867,-0.592119 -1.407115,0.948253 -1.400746,2.664126 0.01345,3.625158 0.378351,0.25711 0.584398,0.30208 1.190134,0.259744 0.849704,-0.05942 1.422653,-0.403565 1.7543,-1.053844 0.293236,-0.574959 0.227378,-1.764017 -0.124009,-2.238939 z M 70.156634,5.8599112 c -0.0851,0.9971487 -0.591202,4.0843593 -0.971032,5.9232768 -2.565521,12.420744 -8.069132,27.486569 -13.550519,37.093773 -0.687757,1.205427 -1.281602,2.192939 -1.319658,2.194474 -0.03805,0.0016 -0.612595,-1.196677 -1.276754,-2.662687 -0.664164,-1.46601 -1.570913,-3.437134 -2.015002,-4.380269 L 50.216237,42.31369 53.375914,35.933348 C 59.785308,22.990831 68.568426,6.2502085 69.775752,4.6752606 69.94997,4.447994 69.995621,4.4389982 70.10967,4.6094346 c 0.07263,0.1085895 0.123068,0.3159105 0.112007,0.4606966 -0.01108,0.1447939 -0.04035,0.5001923 -0.06503,0.7897723 z M 47.708463,60.816526 c -4.760043,6.094116 -5.269777,6.88483 -5.938673,9.212159 -0.79429,2.763602 -1.021161,5.302714 -0.996191,11.149326 0.01899,4.453666 0.0047,4.769577 -0.264705,5.764898 -0.525772,1.94387 -1.547953,3.812741 -2.834722,5.182742 -2.328121,2.478729 -5.525987,3.71877 -8.551723,3.316123 -4.074129,-0.542173 -7.15648,-3.314976 -8.453132,-7.604235 -0.311486,-1.030389 -0.351005,-1.382543 -0.35889,-3.198121 -0.0066,-1.520847 0.04901,-2.269889 0.218464,-2.942345 0.928553,-3.684845 3.158246,-6.504067 6.313361,-7.982602 1.107143,-0.518824 1.982134,-0.770863 6.144696,-1.769958 2.466865,-0.592096 3.338457,-1.026082 4.616002,-2.298443 1.802484,-1.795165 2.867453,-3.78519 4.796604,-8.962993 1.258523,-3.377874 3.273296,-8.424768 3.362344,-8.422505 0.03679,7.91e-4 0.361799,0.459984 0.72215,1.020116 0.360343,0.560132 1.234028,1.895345 1.94151,2.967133 0.707489,1.071789 1.286341,1.9611 1.286341,1.976243 0,0.01511 -0.90155,1.181747 -2.003436,2.592462 z m -9.324451,20.271076 c -1.183678,-4.26527 -5.008485,-6.839812 -8.925103,-6.007624 -2.894771,0.615072 -5.498573,3.067312 -6.5164,6.137101 -1.095069,3.30276 -0.507013,6.849831 1.555335,9.381585 2.18882,2.687 5.94169,3.488245 9.089596,1.94064 1.059047,-0.52066 2.172631,-1.420312 2.896021,-2.339672 0.63247,-0.803815 1.506353,-2.39753 1.775655,-3.23832 0.573424,-1.790292 0.622153,-4.081891 0.124896,-5.87371 z"
       id="path125"
       sodipodi:nodetypes="ssssscssssssssssssssssssssssscsssssscsscsscssscssssssccsssscssscssssssss" /></g></svg>
