<?xml version="1.0" encoding="UTF-8" standalone="no"?>
<!-- Created with Inkscape (http://www.inkscape.org/) -->

<svg
   width="150mm"
   height="210mm"
   viewBox="0 0 150 210"
   version="1.1"
   id="svg5"
   inkscape:version="1.2.2 (732a01da63, 2022-12-09)"
   sodipodi:docname="gain.svg"
   xmlns:inkscape="http://www.inkscape.org/namespaces/inkscape"
   xmlns:sodipodi="http://sodipodi.sourceforge.net/DTD/sodipodi-0.dtd"
   xmlns="http://www.w3.org/2000/svg"
   xmlns:svg="http://www.w3.org/2000/svg">
  <sodipodi:namedview
     id="namedview7"
     pagecolor="#ffffff"
     bordercolor="#000000"
     borderopacity="0.25"
     inkscape:showpageshadow="2"
     inkscape:pageopacity="0.0"
     inkscape:pagecheckerboard="0"
     inkscape:deskcolor="#d1d1d1"
     inkscape:document-units="mm"
     showgrid="false"
     inkscape:zoom="1.0129245"
     inkscape:cx="445.73904"
     inkscape:cy="270.01025"
     inkscape:window-width="1920"
     inkscape:window-height="991"
     inkscape:window-x="-9"
     inkscape:window-y="-9"
     inkscape:window-maximized="1"
     inkscape:current-layer="layer1" />
  <defs
     id="defs2" />
  <g
     inkscape:label="Layer 1"
     inkscape:groupmode="layer"
     id="layer1">
    <rect
       style="fill:#0000ff;stroke-width:0.266999;stroke-linecap:round"
       id="rect234"
       width="103.80224"
       height="86.8097"
       x="175.31099"
       y="5.2798347"
       ry="0.48560381" />
    <g
       id="g1907"
       transform="matrix(0.83850016,0,0,0.83850016,20.080962,2.647184)">
      <path
         id="path448"
         style="fill:#000000;fill-opacity:0.413295;stroke-width:0.266999;stroke-linecap:round"
         d="m 121.56002,16.391248 a 22.164179,22.164179 0 0 0 -16.96744,7.925614 22.164179,22.164179 0 0 1 14.41669,-5.350061 22.164179,22.164179 0 0 1 22.16403,22.164539 22.164179,22.164179 0 0 1 -5.19607,14.23789 22.164179,22.164179 0 0 0 7.74681,-16.813444 22.164179,22.164179 0 0 0 -22.16402,-22.164538 z" />
      <circle
         style="fill:#ffffff;fill-opacity:0.734104;stroke-width:0.266999;stroke-linecap:round"
         id="circle1004"
         cx="119.00909"
         cy="41.131222"
         r="22.164179" />
    </g>
  </g>
</svg>
