<?xml version="1.0" encoding="UTF-8" standalone="no"?>
<!-- Created with Inkscape (http://www.inkscape.org/) -->

<svg
   width="150mm"
   height="210mm"
   viewBox="0 0 150 210"
   version="1.1"
   id="svg5"
   inkscape:version="1.2.2 (732a01da63, 2022-12-09)"
   sodipodi:docname="gain_B.svg"
   inkscape:export-filename="res\images\gain_B.png"
   inkscape:export-xdpi="25.4"
   inkscape:export-ydpi="25.4"
   xmlns:inkscape="http://www.inkscape.org/namespaces/inkscape"
   xmlns:sodipodi="http://sodipodi.sourceforge.net/DTD/sodipodi-0.dtd"
   xmlns="http://www.w3.org/2000/svg"
   xmlns:svg="http://www.w3.org/2000/svg">
  <sodipodi:namedview
     id="namedview7"
     pagecolor="#ffffff"
     bordercolor="#000000"
     borderopacity="0.25"
     inkscape:showpageshadow="2"
     inkscape:pageopacity="0.0"
     inkscape:pagecheckerboard="0"
     inkscape:deskcolor="#d1d1d1"
     inkscape:document-units="mm"
     showgrid="false"
     inkscape:zoom="1.4324916"
     inkscape:cx="432.46327"
     inkscape:cy="206.98202"
     inkscape:window-width="1920"
     inkscape:window-height="991"
     inkscape:window-x="-9"
     inkscape:window-y="-9"
     inkscape:window-maximized="1"
     inkscape:current-layer="layer1" />
  <defs
     id="defs2" />
  <g
     inkscape:label="Layer 1"
     inkscape:groupmode="layer"
     id="layer1">
    <path
       id="path1855"
       style="fill:#000000;fill-opacity:0.41;stroke-width:7.51103;stroke-linecap:round;stroke-linejoin:round;stroke-opacity:0.88"
       d="M 107.36192 19.965706 L 107.66526 20.948592 L 110.55036 22.120614 C 110.58853 21.748814 110.62286 21.490558 110.65423 21.303092 L 107.36192 19.965706 z M 142.51223 19.965706 L 140.67668 20.711397 L 137.28619 31.701941 C 137.45544 35.854017 137.39105 39.722617 136.04183 43.316736 L 137.07277 42.861466 L 138.46028 45.420483 L 134.61349 47.205387 L 140.8498 54.597701 L 140.14958 58.062606 L 138.35228 58.309102 L 138.39 58.34786 L 141.81202 57.878121 L 142.51223 54.413216 L 136.27592 47.020903 L 140.12271 45.235999 L 138.7352 42.676982 L 137.70426 43.132251 C 139.05348 39.538133 139.11787 35.669532 138.94862 31.517456 L 142.51223 19.965706 z M 112.44068 20.728967 C 112.38605 20.712969 112.31069 20.982507 112.21279 21.936129 L 110.88005 21.39456 C 110.88692 21.476406 110.89401 21.57026 110.89401 21.57026 C 110.89401 21.57026 111.3544 22.067893 112.10582 22.752616 L 117.59696 24.982971 L 118.87078 26.67124 C 119.57222 26.777338 120.26017 26.74779 120.90528 26.52913 C 120.7817 26.519133 120.65781 26.505603 120.53321 26.486755 L 119.25939 24.798486 L 113.76825 22.568132 C 113.01683 21.883408 112.55644 21.385775 112.55644 21.385775 C 112.55644 21.385775 112.52053 20.75235 112.44068 20.728967 z M 138.14712 20.743953 C 138.07969 20.753864 138.04752 21.146402 138.03705 21.292757 L 138.27941 21.194055 C 138.22673 20.859463 138.18248 20.738757 138.14712 20.743953 z M 125.29313 23.446114 C 125.02685 24.07248 124.72405 24.58719 124.39292 25.006226 C 125.29408 26.252936 126.42651 26.731604 127.63459 26.730151 L 127.94671 26.31674 C 126.90568 25.939108 125.97945 25.060565 125.29313 23.446114 z M 111.13947 42.676982 L 110.73743 43.418538 L 111.74925 43.86554 C 111.60361 43.50374 111.47165 43.137828 111.34773 42.768966 L 111.13947 42.676982 z M 116.57273 51.631991 L 110.17777 58.168542 L 111.48415 58.34786 L 117.09208 52.615393 L 116.57273 51.631991 z M 129.97708 51.631991 L 128.47123 54.480396 L 129.62723 55.253992 L 130.99304 52.670687 L 129.97708 51.631991 z M 120.96471 53.845292 L 119.88364 54.568245 L 120.24589 55.253992 L 121.73107 54.260254 C 121.47092 54.123375 121.21406 53.985542 120.96471 53.845292 z M 125.84503 54.019442 C 125.44798 54.243171 125.03699 54.465684 124.61358 54.686584 C 124.83647 54.792249 125.06255 54.896985 125.29313 55.00026 C 125.68648 54.807027 126.0683 54.612864 126.43931 54.41735 L 125.84503 54.019442 z " />
    <path
       id="path1086"
       style="fill:#ffffff;fill-opacity:0.73;stroke-width:7.51103;stroke-linecap:round;stroke-linejoin:round;stroke-opacity:0.88"
       d="m 105.69965,20.150442 3.85868,12.507247 0.44597,0.408243 c 0.0113,3.796529 0.39822,7.453863 1.74511,10.799858 l -2.27221,-1.004073 -1.38803,2.559017 3.84576,1.784904 -6.23528,7.392313 0.70022,3.464905 3.42201,0.469739 6.75101,-6.900354 2.01073,3.806486 2.38125,-1.593184 c 0.82763,0.465506 1.71346,0.912823 2.66599,1.339453 0.78159,-0.383958 1.51721,-0.772494 2.21433,-1.165304 l 2.11977,1.419035 2.01228,-3.806486 6.75049,6.900354 3.42202,-0.469739 0.70021,-3.464905 -6.23631,-7.392313 3.8468,-1.784904 -1.38752,-2.559017 -1.03094,0.455269 c 1.34923,-3.594122 1.41362,-7.462715 1.24437,-11.614795 l 3.5636,-11.551749 -4.17028,1.693953 c -0.21783,-1.886991 -0.31265,-0.273885 -0.31265,-0.273885 0,0 -0.25794,0.274081 -0.67179,0.673861 l -6.74222,2.738851 -1.31827,1.74718 c -1.57976,0.0019 -3.03192,-0.813174 -4.00389,-3.099553 -1.1253,2.647059 -2.89449,3.322803 -4.75992,3.040642 l -1.27382,-1.688269 -5.49114,-2.230355 c -0.75142,-0.684724 -1.21181,-1.182357 -1.21181,-1.182357 0,0 -0.10266,-1.797025 -0.34365,0.550354 z" />
  </g>
</svg>
