<?xml version="1.0" encoding="UTF-8" standalone="no"?>
<!-- Created with Inkscape (http://www.inkscape.org/) -->

<svg
   width="369.83609mm"
   height="350.74625mm"
   viewBox="0 0 369.83609 350.74625"
   version="1.1"
   id="svg5"
   inkscape:version="1.2.2 (732a01da63, 2022-12-09)"
   sodipodi:docname="logo.svg"
   xml:space="preserve"
   inkscape:export-filename="res\logo_low_res.png"
   inkscape:export-xdpi="17.169769"
   inkscape:export-ydpi="17.169769"
   xmlns:inkscape="http://www.inkscape.org/namespaces/inkscape"
   xmlns:sodipodi="http://sodipodi.sourceforge.net/DTD/sodipodi-0.dtd"
   xmlns:xlink="http://www.w3.org/1999/xlink"
   xmlns="http://www.w3.org/2000/svg"
   xmlns:svg="http://www.w3.org/2000/svg"><sodipodi:namedview
     id="namedview7"
     pagecolor="#ffffff"
     bordercolor="#000000"
     borderopacity="0.25"
     inkscape:showpageshadow="2"
     inkscape:pageopacity="0.0"
     inkscape:pagecheckerboard="0"
     inkscape:deskcolor="#d1d1d1"
     inkscape:document-units="mm"
     showgrid="false"
     showguides="true"
     inkscape:zoom="0.25323113"
     inkscape:cx="388.97271"
     inkscape:cy="531.13533"
     inkscape:window-width="1920"
     inkscape:window-height="991"
     inkscape:window-x="-9"
     inkscape:window-y="-9"
     inkscape:window-maximized="1"
     inkscape:current-layer="layer1" /><defs
     id="defs2"><rect
       x="465.97748"
       y="758.20062"
       width="39.489616"
       height="75.030273"
       id="rect14605" /><linearGradient
       inkscape:collect="always"
       id="linearGradient3622"><stop
         style="stop-color:#e6e6e6;stop-opacity:0.05031446;"
         offset="0"
         id="stop3618" /><stop
         style="stop-color:#d9fef9;stop-opacity:0.72327042;"
         offset="1"
         id="stop3620" /></linearGradient><linearGradient
       inkscape:collect="always"
       xlink:href="#linearGradient3622"
       id="linearGradient3624"
       x1="0.018833391"
       y1="0.032017577"
       x2="-0.035640266"
       y2="0.066938832"
       gradientUnits="userSpaceOnUse"
       gradientTransform="matrix(9258.5211,-3777.7139,3963.8197,9180.3845,3.8559975e-5,-1.1542294)" /><linearGradient
       inkscape:collect="always"
       xlink:href="#linearGradient3622"
       id="linearGradient581"
       gradientUnits="userSpaceOnUse"
       gradientTransform="matrix(9258.5211,-3777.7139,3963.8197,9180.3845,3.8559975e-5,-1.1542294)"
       x1="0.018833391"
       y1="0.032017577"
       x2="-0.035640266"
       y2="0.066938832" /><linearGradient
       inkscape:collect="always"
       xlink:href="#linearGradient3622"
       id="linearGradient589"
       gradientUnits="userSpaceOnUse"
       gradientTransform="matrix(9258.5211,-3777.7139,3963.8197,9180.3845,3.8559975e-5,-1.1542294)"
       x1="0.018833391"
       y1="0.032017577"
       x2="-0.035640266"
       y2="0.066938832" /></defs><g
     inkscape:label="Layer 1"
     inkscape:groupmode="layer"
     id="layer1"
     transform="translate(-72.847145,-220.61332)"><g
       id="g480"
       transform="matrix(0.44242107,-0.09501753,0.09501753,0.44242107,68.544948,263.81532)"><rect
         style="fill:#1697a5;fill-opacity:1;stroke-width:26.457"
         id="rect111"
         width="499.97824"
         height="699.96967"
         x="3.7968348e-05"
         y="0.00011543828"
         ry="50.790703" /><path
         id="path3444"
         style="fill:url(#linearGradient3624);fill-opacity:1;stroke-width:33.6318"
         d="M 50.485702,9.9040646 A 469.04539,368.09918 64.789576 0 0 18.189351,11.764267 C 7.045051,21.066664 0,35.060616 0,50.778316 V 649.16556 c -4.3479126e-4,28.13576 22.657799,50.79515 50.796151,50.79515 l 398.407939,-3e-5 c 28.13606,4.2e-4 50.796,-22.65576 50.79552,-50.79515 L 500,429.24013 A 469.04539,368.09918 64.789576 0 0 465.68855,323.15323 469.04539,368.09918 64.789576 0 0 50.485702,9.9040646 Z" /></g><text
       xml:space="preserve"
       style="font-size:0.0141111px;fill:none;fill-opacity:0.405797;stroke:#ffffff;stroke-width:0.00049;stroke-dasharray:none;stroke-opacity:1"
       x="107.1822"
       y="-54.59433"
       id="text6695"
       transform="rotate(10.001806)"><tspan
         sodipodi:role="line"
         id="tspan6693"
         style="font-size:0.0141111px;stroke-width:0.000489999"
         x="107.1822"
         y="-54.59433" /></text><text
       xml:space="preserve"
       style="font-size:0.00352778px;fill:none;fill-opacity:0.405797;stroke:#ffffff;stroke-width:0.00049;stroke-dasharray:none;stroke-opacity:1"
       x="107.1822"
       y="-54.591099"
       id="text6699"
       transform="rotate(10.001806)"><tspan
         sodipodi:role="line"
         id="tspan6697"
         style="font-size:0.00352778px;stroke-width:0.000489999"
         x="107.1822"
         y="-54.591099" /></text><text
       xml:space="preserve"
       style="font-style:normal;font-variant:normal;font-weight:normal;font-stretch:normal;font-size:0.00352778px;font-family:'Chocolate Covered Raindrops';-inkscape-font-specification:'Chocolate Covered Raindrops';fill:#c8c8c8;fill-opacity:1;stroke:#cecece;stroke-width:0.00049;stroke-opacity:1"
       x="107.1822"
       y="-54.583248"
       id="text1010"
       transform="rotate(10.001806)"><tspan
         sodipodi:role="line"
         id="tspan1008"
         style="font-size:0.00352778px;stroke-width:0.000489999"
         x="107.1822"
         y="-54.583248" /></text><text
       xml:space="preserve"
       transform="matrix(0.26056227,0.04595263,-0.04595263,0.26056227,115.02517,-35.16103)"
       id="text14603"
       style="font-size:133.333px;font-family:'Chocolate Covered Raindrops';-inkscape-font-specification:'Chocolate Covered Raindrops';white-space:pre;shape-inside:url(#rect14605);display:inline;fill:#000000;fill-opacity:1;stroke:none;stroke-width:50.6041;stroke-dasharray:none;stroke-opacity:1" /><text
       xml:space="preserve"
       style="font-style:normal;font-variant:normal;font-weight:normal;font-stretch:normal;font-size:115.805px;font-family:'Chocolate Covered Raindrops';-inkscape-font-specification:'Chocolate Covered Raindrops';fill:#424242;fill-opacity:0.421965;stroke:#ffffff;stroke-width:11.0949;stroke-linecap:round;stroke-opacity:0.88"
       x="0.99745858"
       y="345.37888"
       id="text645"
       transform="matrix(0.98063931,-0.23822777,0.24318058,0.96066681,0,0)"><tspan
         sodipodi:role="line"
         id="tspan643"
         style="font-style:normal;font-variant:normal;font-weight:normal;font-stretch:normal;font-family:'Chocolate Covered Raindrops';-inkscape-font-specification:'Chocolate Covered Raindrops';stroke-width:11.0949"
         x="0.99745858"
         y="345.37888">R</tspan></text><g
       id="g579"
       transform="matrix(0.45244792,0.00745721,-0.00745721,0.45244792,144.75405,226.33123)"><rect
         style="fill:#1697a5;fill-opacity:1;stroke-width:26.457"
         id="rect575"
         width="499.97824"
         height="699.96967"
         x="3.7968348e-05"
         y="0.00011543828"
         ry="50.790703" /><path
         id="path577"
         style="fill:url(#linearGradient581);fill-opacity:1;stroke-width:33.6318"
         d="M 50.485702,9.9040646 A 469.04539,368.09918 64.789576 0 0 18.189351,11.764267 C 7.045051,21.066664 0,35.060616 0,50.778316 V 649.16556 c -4.3479126e-4,28.13576 22.657799,50.79515 50.796151,50.79515 l 398.407939,-3e-5 c 28.13606,4.2e-4 50.796,-22.65576 50.79552,-50.79515 L 500,429.24013 A 469.04539,368.09918 64.789576 0 0 465.68855,323.15323 469.04539,368.09918 64.789576 0 0 50.485702,9.9040646 Z" /></g><text
       xml:space="preserve"
       style="font-style:normal;font-variant:normal;font-weight:normal;font-stretch:normal;font-size:115.805px;font-family:'Chocolate Covered Raindrops';-inkscape-font-specification:'Chocolate Covered Raindrops';fill:#424242;fill-opacity:0.421965;stroke:#ffffff;stroke-width:11.0949;stroke-linecap:round;stroke-opacity:0.88"
       x="157.88028"
       y="294.63104"
       id="text649"
       transform="matrix(1.0072445,0.06216395,-0.05153089,0.98962728,0,0)"><tspan
         sodipodi:role="line"
         id="tspan647"
         style="font-style:normal;font-variant:normal;font-weight:normal;font-stretch:normal;font-family:'Chocolate Covered Raindrops';-inkscape-font-specification:'Chocolate Covered Raindrops';stroke-width:11.0949"
         x="157.88028"
         y="294.63104">P</tspan></text><g
       id="g587"
       transform="matrix(0.44251822,0.09456404,-0.09456404,0.44251822,225.72036,218.61683)"><rect
         style="fill:#1697a5;fill-opacity:1;stroke-width:26.457"
         id="rect583"
         width="499.97824"
         height="699.96967"
         x="3.7968348e-05"
         y="0.00011543828"
         ry="50.790703" /><path
         id="path585"
         style="fill:url(#linearGradient589);fill-opacity:1;stroke-width:33.6318"
         d="M 50.485702,9.9040646 A 469.04539,368.09918 64.789576 0 0 18.189351,11.764267 C 7.045051,21.066664 0,35.060616 0,50.778316 V 649.16556 c -4.3479126e-4,28.13576 22.657799,50.79515 50.796151,50.79515 l 398.407939,-3e-5 c 28.13606,4.2e-4 50.796,-22.65576 50.79552,-50.79515 L 500,429.24013 A 469.04539,368.09918 64.789576 0 0 465.68855,323.15323 469.04539,368.09918 64.789576 0 0 50.485702,9.9040646 Z" /></g><text
       xml:space="preserve"
       style="font-style:normal;font-variant:normal;font-weight:normal;font-stretch:normal;font-size:115.805px;font-family:'Chocolate Covered Raindrops';-inkscape-font-specification:'Chocolate Covered Raindrops';fill:#424242;fill-opacity:0.421965;stroke:#ffffff;stroke-width:11.0949;stroke-linecap:round;stroke-opacity:0.88"
       x="271.59357"
       y="231.11505"
       id="text703"
       transform="matrix(0.97412612,0.26359845,-0.2496375,0.95900923,0,0)"><tspan
         sodipodi:role="line"
         id="tspan701"
         style="font-style:normal;font-variant:normal;font-weight:normal;font-stretch:normal;font-family:'Chocolate Covered Raindrops';-inkscape-font-specification:'Chocolate Covered Raindrops';stroke-width:11.0949"
         x="271.59357"
         y="231.11505">S</tspan></text></g></svg>
